<?xml version="1.0" encoding="UTF-8"?>
<svg xmlns="http://www.w3.org/2000/svg" xmlns:xlink="http://www.w3.org/1999/xlink" width="190pt" height="178pt" viewBox="0 0 190 178" version="1.1">
<g id="surface1">
<path style=" stroke:none;fill-rule:nonzero;fill:rgb(14.901961%,19.607843%,21.960784%);fill-opacity:1;" d="M 19.753906 174.464844 C 19.429688 174.488281 19.082031 174.511719 18.710938 174.535156 C 18.363281 174.535156 17.992188 174.535156 17.597656 174.535156 L 10.191406 174.535156 C 3.398438 174.535156 0 172.289062 0 167.796875 L 0 157.039062 C 0 152.640625 3.339844 150.441406 10.015625 150.441406 L 17.773438 150.441406 C 24.449219 150.441406 27.789062 152.640625 27.789062 157.039062 L 27.789062 167.796875 C 27.789062 170.472656 26.605469 172.347656 24.242188 173.417969 L 26.710938 175.128906 C 27.429688 175.570312 27.789062 176.027344 27.789062 176.492188 C 27.789062 176.957031 27.605469 177.304688 27.234375 177.539062 C 26.886719 177.792969 26.386719 177.921875 25.738281 177.921875 C 25.574219 177.921875 25.367188 177.886719 25.113281 177.816406 C 24.878906 177.773438 24.601562 177.644531 24.277344 177.433594 Z M 24.035156 157.109375 C 24.035156 154.570312 21.921875 153.304688 17.703125 153.304688 L 10.085938 153.304688 C 5.867188 153.304688 3.757812 154.570312 3.757812 157.109375 L 3.757812 167.796875 C 3.757812 170.425781 5.960938 171.742188 10.363281 171.742188 L 17.425781 171.742188 C 21.832031 171.742188 24.035156 170.425781 24.035156 167.796875 Z M 24.035156 157.109375 "/>
<path style=" stroke:none;fill-rule:nonzero;fill:rgb(14.901961%,19.607843%,21.960784%);fill-opacity:1;" d="M 47.320312 174.605469 C 41.335938 174.605469 38.347656 172.765625 38.347656 169.085938 L 38.347656 158.925781 C 38.347656 157.949219 38.960938 157.457031 40.1875 157.457031 C 41.417969 157.457031 42.03125 157.949219 42.03125 158.925781 L 42.03125 169.121094 C 42.03125 170.890625 43.75 171.777344 47.179688 171.777344 L 53.789062 171.777344 C 57.21875 171.777344 58.9375 170.890625 58.9375 169.121094 L 58.9375 158.925781 C 58.9375 157.949219 59.550781 157.457031 60.78125 157.457031 C 62.03125 157.457031 62.65625 157.949219 62.65625 158.925781 L 62.65625 169.085938 C 62.65625 172.765625 59.667969 174.605469 53.683594 174.605469 Z M 47.320312 174.605469 "/>
<path style=" stroke:none;fill-rule:nonzero;fill:rgb(14.901961%,19.607843%,21.960784%);fill-opacity:1;" d="M 79.734375 174.605469 C 74.773438 174.605469 72.292969 173.058594 72.292969 169.960938 L 72.292969 167.96875 C 72.292969 164.898438 74.773438 163.359375 79.734375 163.359375 L 94.515625 163.359375 L 94.515625 162.835938 C 94.515625 161.207031 93.089844 160.390625 90.238281 160.390625 L 85.335938 160.390625 C 84.175781 160.390625 83.59375 159.9375 83.59375 159.03125 C 83.59375 158.097656 84.175781 157.632812 85.335938 157.632812 L 90.238281 157.632812 C 95.5 157.632812 98.132812 159.367188 98.132812 162.835938 L 98.132812 169.679688 C 98.132812 172.964844 95.605469 174.605469 90.550781 174.605469 Z M 90.34375 171.882812 C 93.125 171.882812 94.515625 171.113281 94.515625 169.578125 L 94.515625 165.769531 L 80.011719 165.769531 C 77.300781 165.769531 75.945312 166.480469 75.945312 167.898438 L 75.945312 169.714844 C 75.945312 171.160156 77.300781 171.882812 80.011719 171.882812 Z M 90.34375 171.882812 "/>
<path style=" stroke:none;fill-rule:nonzero;fill:rgb(14.901961%,19.607843%,21.960784%);fill-opacity:1;" d="M 131.019531 170.695312 C 131.019531 173.300781 128.378906 174.605469 123.089844 174.605469 L 109.527344 174.605469 C 108.367188 174.605469 107.789062 174.152344 107.789062 173.242188 C 107.789062 172.335938 108.367188 171.882812 109.527344 171.882812 L 123.089844 171.882812 C 125.941406 171.882812 127.371094 171.484375 127.371094 170.695312 L 127.371094 168.738281 C 127.371094 167.945312 125.941406 167.550781 123.089844 167.550781 L 115.925781 167.550781 C 110.640625 167.550781 107.996094 166.28125 107.996094 163.746094 L 107.996094 162.101562 C 107.996094 159.125 110.722656 157.632812 116.171875 157.632812 L 120.933594 157.632812 C 122.117188 157.632812 122.707031 158.097656 122.707031 159.03125 C 122.707031 159.496094 122.546875 159.84375 122.222656 160.078125 C 121.921875 160.289062 121.492188 160.390625 120.933594 160.390625 L 116.171875 160.390625 C 113.132812 160.390625 111.613281 160.960938 111.613281 162.101562 L 111.613281 163.640625 C 111.613281 164.59375 113.121094 165.070312 116.136719 165.070312 L 123.300781 165.070312 C 128.449219 165.070312 131.019531 166.257812 131.019531 168.632812 Z M 131.019531 170.695312 "/>
<path style=" stroke:none;fill-rule:nonzero;fill:rgb(14.901961%,19.607843%,21.960784%);fill-opacity:1;" d="M 147.597656 174.605469 C 142.636719 174.605469 140.15625 173.058594 140.15625 169.960938 L 140.15625 167.96875 C 140.15625 164.898438 142.636719 163.359375 147.597656 163.359375 L 162.378906 163.359375 L 162.378906 162.835938 C 162.378906 161.207031 160.953125 160.390625 158.101562 160.390625 L 153.199219 160.390625 C 152.039062 160.390625 151.460938 159.9375 151.460938 159.03125 C 151.460938 158.097656 152.039062 157.632812 153.199219 157.632812 L 158.101562 157.632812 C 163.367188 157.632812 165.996094 159.367188 165.996094 162.835938 L 165.996094 169.679688 C 165.996094 172.964844 163.46875 174.605469 158.414062 174.605469 Z M 158.207031 171.882812 C 160.988281 171.882812 162.378906 171.113281 162.378906 169.578125 L 162.378906 165.769531 L 147.878906 165.769531 C 145.164062 165.769531 143.808594 166.480469 143.808594 167.898438 L 143.808594 169.714844 C 143.808594 171.160156 145.164062 171.882812 147.878906 171.882812 Z M 158.207031 171.882812 "/>
<path style=" stroke:none;fill-rule:nonzero;fill:rgb(14.901961%,19.607843%,21.960784%);fill-opacity:1;" d="M 176.453125 163.1875 C 176.453125 159.484375 179.445312 157.632812 185.425781 157.632812 L 188.105469 157.632812 C 189.285156 157.632812 189.878906 158.109375 189.878906 159.066406 C 189.878906 160.019531 189.285156 160.496094 188.105469 160.496094 L 185.285156 160.496094 C 181.855469 160.496094 180.140625 161.371094 180.140625 163.117188 L 180.140625 173.3125 C 180.140625 174.289062 179.523438 174.78125 178.296875 174.78125 C 177.066406 174.78125 176.453125 174.289062 176.453125 173.3125 Z M 176.453125 163.1875 "/>
<path style=" stroke:none;fill-rule:nonzero;fill:rgb(100%,100%,100%);fill-opacity:1;" d="M 155.886719 62.78125 C 155.886719 97.457031 127.890625 125.566406 93.355469 125.566406 C 58.824219 125.566406 30.828125 97.457031 30.828125 62.78125 C 30.828125 28.109375 58.824219 0 93.355469 0 C 127.890625 0 155.886719 28.109375 155.886719 62.78125 Z M 155.886719 62.78125 "/>
<path style=" stroke:none;fill-rule:nonzero;fill:rgb(14.901961%,19.607843%,21.960784%);fill-opacity:1;" d="M 103.589844 62.78125 C 103.589844 68.453125 99.011719 73.050781 93.359375 73.050781 C 87.710938 73.050781 83.132812 68.453125 83.132812 62.78125 C 83.132812 57.109375 87.710938 52.507812 93.359375 52.507812 C 99.011719 52.507812 103.589844 57.109375 103.589844 62.78125 Z M 103.589844 62.78125 "/>
<path style=" stroke:none;fill-rule:nonzero;fill:rgb(9.803922%,46.27451%,82.352941%);fill-opacity:1;" d="M 138.769531 36.453125 C 136.546875 32.609375 133.847656 29.066406 130.734375 25.90625 L 118.910156 32.761719 C 115.222656 29.597656 111.03125 27.175781 106.5625 25.574219 C 102.523438 29.683594 99.316406 34.273438 97.003906 39.265625 C 110.167969 38.367188 123.765625 43.152344 136.386719 53.050781 L 143.828125 48.738281 C 142.667969 44.445312 140.964844 40.316406 138.769531 36.453125 Z M 138.769531 36.453125 "/>
<path style=" stroke:none;fill-rule:nonzero;fill:rgb(25.882353%,64.705882%,96.078431%);fill-opacity:1;" d="M 138.773438 89.101562 C 140.976562 85.246094 142.683594 81.128906 143.851562 76.839844 L 132.027344 69.984375 C 132.910156 65.199219 132.90625 60.347656 132.050781 55.65625 C 126.488281 54.199219 120.925781 53.707031 115.464844 54.191406 C 122.820312 65.1875 125.492188 79.402344 123.265625 95.328125 L 130.707031 99.644531 C 133.828125 96.484375 136.539062 92.945312 138.773438 89.101562 Z M 138.773438 89.101562 "/>
<path style=" stroke:none;fill-rule:nonzero;fill:rgb(9.803922%,46.27451%,82.352941%);fill-opacity:1;" d="M 93.363281 115.429688 C 97.789062 115.417969 102.195312 114.839844 106.480469 113.714844 L 106.480469 100.003906 C 111.050781 98.382812 115.234375 95.949219 118.851562 92.863281 C 117.324219 87.296875 114.96875 82.210938 111.820312 77.707031 C 106.011719 89.601562 95.089844 99.03125 80.238281 105.058594 L 80.238281 113.6875 C 84.523438 114.820312 88.933594 115.40625 93.363281 115.429688 Z M 93.363281 115.429688 "/>
<path style=" stroke:none;fill-rule:nonzero;fill:rgb(25.882353%,64.705882%,96.078431%);fill-opacity:1;" d="M 47.949219 89.109375 C 50.175781 92.949219 52.875 96.496094 55.984375 99.65625 L 67.8125 92.800781 C 71.5 95.960938 75.6875 98.382812 80.160156 99.984375 C 84.199219 95.878906 87.40625 91.285156 89.714844 86.292969 C 76.550781 87.195312 62.957031 82.410156 50.335938 72.507812 L 42.890625 76.824219 C 44.054688 81.117188 45.753906 85.242188 47.949219 89.109375 Z M 47.949219 89.109375 "/>
<path style=" stroke:none;fill-rule:nonzero;fill:rgb(9.803922%,46.27451%,82.352941%);fill-opacity:1;" d="M 47.949219 36.457031 C 45.746094 40.3125 44.039062 44.433594 42.867188 48.71875 L 54.695312 55.574219 C 53.808594 60.359375 53.816406 65.214844 54.667969 69.90625 C 60.230469 71.359375 65.796875 71.855469 71.257812 71.367188 C 63.898438 60.371094 61.226562 46.15625 63.457031 30.230469 L 56.015625 25.917969 C 52.890625 29.074219 50.183594 32.617188 47.949219 36.457031 Z M 47.949219 36.457031 "/>
<path style=" stroke:none;fill-rule:nonzero;fill:rgb(25.882353%,64.705882%,96.078431%);fill-opacity:1;" d="M 93.355469 10.132812 C 88.929688 10.144531 84.523438 10.71875 80.242188 11.84375 L 80.242188 25.554688 C 75.671875 27.179688 71.488281 29.613281 67.871094 32.699219 C 69.394531 38.265625 71.75 43.347656 74.902344 47.855469 C 80.707031 35.957031 91.632812 26.527344 106.484375 20.503906 L 106.484375 11.875 C 102.199219 10.738281 97.789062 10.152344 93.355469 10.132812 Z M 93.355469 10.132812 "/>
</g>
</svg>
